<?xml version="1.0" standalone="no"?>
<!DOCTYPE svg PUBLIC "-//W3C//DTD SVG 20010904//EN"
 "http://www.w3.org/TR/2001/REC-SVG-20010904/DTD/svg10.dtd">
<svg version="1.0" xmlns="http://www.w3.org/2000/svg"
 width="414.000000pt" height="295.000000pt" viewBox="0 0 414.000000 295.000000"
 preserveAspectRatio="xMidYMid meet">

<g transform="translate(0.000000,295.000000) scale(0.100000,-0.100000)"
fill="#000000" stroke="none">
<path d="M257 2052 c-15 -17 -17 -75 -17 -626 0 -399 4 -614 10 -627 7 -13 21
-19 43 -19 28 0 50 18 172 140 120 120 144 140 171 140 27 0 51 -20 172 -141
129 -129 143 -140 173 -137 41 4 73 44 64 80 -10 39 -375 398 -405 398 -16 0
-48 -23 -96 -70 -79 -77 -114 -89 -149 -49 -17 18 -19 40 -20 227 -3 626 -4
670 -21 686 -21 22 -77 20 -97 -2z"/>
<path d="M3011 2044 c-12 -15 -21 -36 -21 -47 0 -32 377 -407 409 -407 17 0
47 22 97 70 78 76 114 88 148 51 15 -17 17 -58 17 -448 0 -317 3 -435 12 -453
10 -20 22 -26 54 -28 78 -6 73 -47 73 642 0 581 -1 614 -18 629 -39 36 -60 23
-212 -128 -104 -103 -153 -145 -170 -145 -16 0 -66 42 -170 145 -160 158 -180
169 -219 119z"/>
<path d="M1132 1747 c-262 -263 -302 -306 -302 -332 0 -27 39 -70 303 -333
233 -233 308 -302 327 -302 19 0 74 48 228 203 216 216 227 232 182 277 -43
43 -65 31 -225 -130 -127 -128 -154 -150 -180 -150 -26 0 -59 28 -238 208
-114 114 -207 214 -207 221 0 31 41 79 222 259 145 143 200 192 218 192 19 0
150 -125 565 -540 423 -422 546 -540 565 -540 36 0 640 604 640 640 0 19 -69
93 -303 327 -263 263 -306 303 -333 303 -25 0 -58 -29 -232 -203 -142 -143
-202 -210 -202 -226 0 -28 43 -71 72 -71 15 0 69 47 178 155 115 114 163 155
181 155 18 0 76 -52 231 -207 177 -177 208 -212 208 -237 0 -25 -31 -61 -202
-233 -187 -187 -206 -204 -234 -201 -27 3 -113 83 -569 536 -441 437 -541 532
-563 532 -22 0 -83 -56 -330 -303z"/>
<path d="M3906 1918 c-9 -12 -16 -29 -16 -38 0 -9 7 -26 16 -38 31 -45 104
-17 104 40 0 53 -74 79 -104 36z m78 -4 c21 -21 20 -47 -3 -68 -26 -23 -52
-17 -70 16 -14 24 -14 28 3 47 23 25 49 27 70 5z"/>
<path d="M3930 1878 c0 -26 3 -30 11 -18 8 11 12 12 16 3 9 -23 22 -13 20 15
-2 20 -8 28 -25 30 -19 3 -22 -1 -22 -30z m30 12 c0 -5 -2 -10 -4 -10 -3 0 -8
5 -11 10 -3 6 -1 10 4 10 6 0 11 -4 11 -10z"/>
</g>
</svg>
